<?xml version="1.0" encoding="UTF-8" standalone="no"?>
<svg
   xmlns:dc="http://purl.org/dc/elements/1.1/"
   xmlns:cc="http://creativecommons.org/ns#"
   xmlns:rdf="http://www.w3.org/1999/02/22-rdf-syntax-ns#"
   xmlns:svg="http://www.w3.org/2000/svg"
   xmlns="http://www.w3.org/2000/svg"
   width="15.689792mm"
   height="15.742677mm"
   viewBox="0 0 15.689792 15.742677"
   version="1.1"
   id="svg8">
  <defs
     id="defs2">
    <clipPath
       clipPathUnits="userSpaceOnUse"
       id="clipPath1824">
      <path
         id="path1826"
         style="fill:#ff0000;fill-opacity:1;fill-rule:nonzero;stroke:none;stroke-width:0.651636"
         d="m 24.605506,29.824157 c -0.08841,0.254015 -0.09842,0.262861 -0.174527,0.59265 -0.0151,0.0654 -0.03034,0.131262 -0.03921,0.197546 -0.01607,0.119045 -0.0082,0.126076 -0.0081,0.15325 0.0745,0.08829 0.13904,0.219694 0.175885,0.289742 0.07323,-0.02636 0.14544,-0.05775 0.22053,-0.06825 0.07829,-0.01091 0.156634,-0.01183 0.234058,0.0012 0.281356,0.04726 0.405697,0.206079 0.476235,0.384322 0.14355,0.04058 0.278226,0.129772 0.38288,0.269383 0.06982,0.0083 0.142877,0.0179 0.174534,0.0407 -3.47e-4,-0.0018 -0.0014,-0.0055 -0.0014,-0.0072 -0.01434,-0.02501 -0.01053,-0.01796 -0.03789,-0.06825 -0.01122,-0.0206 0.03242,0.03819 0.03519,0.06105 2.35e-4,0.0018 0.0021,0.0049 0.0028,0.0072 0.0014,0.0031 0.0028,0.0055 0.0042,0.0084 0.03048,0.0228 0.04704,0.05376 0.0514,0.09339 0.0151,0.03261 0.02528,0.07345 0.09336,0.276574 0.0074,0.0545 0.01108,0.109997 0.01759,0.165223 0.0035,0.01116 0.0062,0.02231 0.0095,0.03353 0.01995,0.02526 0.04045,0.05008 0.05549,0.07782 0.104592,0.193709 0.107584,0.198263 0.136643,0.338825 0.0073,0.03519 0.01482,0.0701 0.02161,0.105363 0,0 0,0.0012 0,0.0012 0.0205,0.03053 0.04371,0.05437 0.07847,0.117334 0.01642,0.02955 0.04239,0.05811 0.04198,0.09099 -2.49e-4,0.01723 -0.0035,0.03433 -0.0042,0.05149 0.02203,0.04892 0.06352,0.132838 0.100117,0.221496 0.03353,0.01943 0.0665,0.03929 0.100117,0.05866 0.08418,0.09136 0.14605,0.146398 0.197532,0.201145 0.0014,0.0012 0.0035,0.0025 0.0055,0.0037 0.03415,0.02703 0.06311,0.05958 0.092,0.09099 0.139095,0.151105 0.257541,0.317265 0.373416,0.4825 0.02986,0.04254 0.05791,0.08729 0.08659,0.130502 0.04149,0.06803 0.08468,0.134701 0.124472,0.203535 0.0767,0.13269 0.133692,0.274637 0.198876,0.411863 0.03997,0.0841 0.08037,0.167859 0.121771,0.251423 0.03498,0.07072 0.07237,0.140334 0.108235,0.210719 0.222746,0.424449 -0.01579,0.0018 0.251646,0.389115 0.07757,0.112266 0.150871,0.226731 0.219172,0.343619 0.135133,0.231169 0.247345,0.472832 0.377469,0.706386 0.05708,0.08274 0.08586,0.132911 0.117712,0.222691 0.04967,0.08375 0.08647,0.172058 0.114996,0.263401 0.234121,0.02734 0.46847,0.05088 0.704884,0.04671 0.824216,-0.01434 1.196912,0.376579 1.124296,0.742308 0.0087,0.0097 0.0203,0.01753 0.0284,0.02752 v -8.221648 z m 1.488237,2.016199 c -0.0014,0.02562 -0.0069,0.05922 -0.01081,0.0898 0.0042,0.01465 0.0069,0.02961 0.01081,0.04432 0.0042,0.0083 0.0072,0.01526 0.01219,0.02397 0.01427,-0.03856 0.0098,-0.09165 -0.01219,-0.158044 z m 0,0.134095 c -0.0048,-0.0091 -0.0084,-0.01551 -0.01351,-0.02513 -0.0021,0.01459 -0.0021,0.02446 -0.0055,0.0407 0.0014,0.0018 0.0028,0.0031 0.0042,0.0049 0,0 0,0.0012 0,0.0012 0.0073,0.0091 0.01455,0.01827 0.02161,0.02752 0.0028,-0.0031 6.93e-4,-0.0096 0.0028,-0.01318 -0.0035,-0.01195 -0.0062,-0.02403 -0.0095,-0.03592 z m 0.124472,0.292138 c 6.1e-4,0.0043 6.93e-4,0.0088 0.0014,0.01318 0.0035,0.0061 0.0071,0.01202 0.01081,0.01796 -0.0014,-0.0096 -6.93e-4,-0.0099 -0.0028,-0.02035 -8.3e-5,-5.09e-4 -0.0014,-0.0018 -0.0014,-0.0025 -1.32e-4,3.61e-4 5.54e-4,0.0031 0,0.0025 -0.0035,-0.0031 -0.0035,-0.0049 -0.0081,-0.01079 z m -0.13665,0.03592 c 1.4e-5,0.0018 -7e-6,0.0031 0,0.0049 0,0 0.0014,0.0012 0.0014,0.0012 -6.92e-4,-0.0018 -6.44e-4,-0.0043 -0.0014,-0.0061 z m 0.165065,0.120927 c -0.0055,0.01612 -0.0035,0.0111 -0.0081,0.02513 3.81e-4,0.0096 0.0028,0.01919 0.0028,0.02875 -4.71e-4,0.03997 0.0035,0.08117 -0.0069,0.119726 0.016,-0.06427 0.01801,-0.109213 0.01219,-0.173602 z m -0.0176,0.192758 c -0.0035,0.0089 -0.0085,0.01741 -0.01219,0.02636 9e-5,0.01269 -0.0021,0.02434 -0.0014,0.03709 0.0089,-0.03954 0.0075,-0.03911 0.01351,-0.06345 z" />
    </clipPath>
    <clipPath
       clipPathUnits="userSpaceOnUse"
       id="clipPath1908">
      <path
         id="path1910"
         style="fill:#ff0000;fill-opacity:1;fill-rule:nonzero;stroke:none;stroke-width:0.651636"
         d="m 34.499568,27.799577 v 10.737107 c 0.0802,-0.01238 0.15915,-0.03175 0.24082,-0.0347 0.05008,-0.01379 0.09131,-0.02532 0.12718,-0.03353 -0.01344,0.0025 -0.01122,0.0012 -0.03249,0.0049 -0.0021,3.8e-4 0.0035,-0.0012 0.0055,-0.0025 0.009,-6.13e-4 0.0133,-6.13e-4 0.02708,-0.0025 0,0 0.0014,0 0.0014,0 0.03609,-0.0082 0.07815,-0.0187 0.09606,-0.02035 6.93e-4,-4.23e-4 0.0069,-6.13e-4 0.0081,-0.0012 0.02805,-0.01116 0.14447,-0.03709 0.185354,-0.04193 0.05784,-0.01312 0.106483,-0.01863 0.194823,-0.02513 -0.150864,0.02096 -0.138659,0.01919 -0.179944,0.02397 0.0302,-0.0055 0.06047,-0.0025 0.09065,-0.0037 0.0266,-0.0012 0.05341,-0.0063 0.07983,-0.0037 0.0221,-0.0114 0.04911,-0.02035 0.07576,-0.02875 -1.59e-4,-0.0031 -0.0014,-0.0074 -0.0014,-0.01079 0.01171,-2.39e-4 0.02348,-0.0012 0.03519,-0.0012 6.93e-4,-2.33e-4 0.0021,2.27e-4 0.0028,0 0.07403,-0.01759 0.135597,-0.01477 0.189407,0.0012 0.388926,-0.0025 0.77759,-0.0049 1.166239,0.0061 0.02355,0.0012 0.04676,0.0037 0.07035,0.0037 0.129446,-0.0018 0.266775,-0.0225 0.395057,-0.03592 0.08308,-0.0086 0.165737,-0.01655 0.248945,-0.02397 0.04329,-0.0037 0.08655,-0.0063 0.129882,-0.0096 0.159163,-0.01263 0.319213,-0.0252 0.478937,-0.02992 0.234176,-0.08359 0.784801,-0.205362 0.986295,-0.251429 0.244782,-0.05597 0.489771,-0.113307 0.736,-0.164027 0.0843,-0.01735 0.170461,-0.02752 0.255706,-0.0407 0.114255,-0.0077 0.12522,-0.0096 0.179944,-0.01434 0.02708,-0.0083 0.0541,-0.01673 0.08118,-0.02513 0.141991,-0.147102 0.210423,-0.205699 0.418055,-0.377144 0.34343,-0.273926 0.27862,-0.22754 0.572293,-0.444187 0.101987,-0.0752 0.204126,-0.150945 0.307118,-0.225088 0.04115,-0.02961 0.108505,-0.130919 0.124472,-0.0862 0.0042,0.01214 -0.0035,0.02881 -0.01351,0.04548 0.02882,-0.03555 0.06137,-0.06782 0.092,-0.10177 0.138742,-0.07579 0.253939,-0.219142 0.416704,-0.227479 0.348957,-0.01802 0.7236,0.01152 1.034999,0.152055 0.117248,0.0529 0.196507,0.149395 0.262473,0.25621 0.08256,-0.06259 0.164809,-0.125481 0.247587,-0.18797 0.134974,-0.122435 0.329236,-0.297576 0.481652,-0.428624 0.01247,-0.02618 0.01947,-0.05419 0.03249,-0.08022 0.05251,-0.104805 0.129232,-0.249627 0.20971,-0.391506 0.0094,-0.02378 0.01711,-0.04818 0.02708,-0.07183 0.01185,-0.0282 0.02584,-0.04303 0.03789,-0.06825 -0.0014,0.01232 -0.0028,0.02495 0.0014,0.03353 0.03374,-0.05505 0.06754,-0.117819 0.100117,-0.16163 0.109198,-0.146746 0.228191,-0.286995 0.343645,-0.429818 0.150663,-0.253422 0.299789,-0.507572 0.454588,-0.759068 4.1e-5,-1.54e-4 -4.2e-5,-0.0025 0,-0.0025 0.0099,-0.03997 0.08199,-0.32201 0.139351,-0.555533 -0.20991,-0.03825 -0.235305,-0.161214 0.113653,-0.457355 0.02265,-0.0896 0.04731,-0.196387 0.06089,-0.246635 0.05029,-0.185831 0.100076,-0.372405 0.15694,-0.556734 0.02244,-0.07277 0.04267,-0.146404 0.07983,-0.214312 0.04385,-0.08017 0.09445,-0.157425 0.144762,-0.234663 0.05355,-0.228595 0.111249,-0.458758 0.331474,-0.478908 0.0329,-0.0031 0.05701,-0.0025 0.08253,-0.0025 0.0021,-0.02489 -3.88e-4,-0.07799 0.0081,-0.17001 0.0042,-0.0483 -0.0055,-0.09954 0.01351,-0.14487 0.01219,-0.02814 0.0014,0.06087 0.01081,0.0898 0.0069,0.02004 -0.0021,-0.0426 -0.0028,-0.06346 -0.02251,-0.08526 -0.04516,-0.169758 -0.06761,-0.255015 -0.03685,-0.185316 -0.07706,-0.37078 -0.109593,-0.556734 -0.08702,-0.497335 -0.174347,-1.145094 -0.211053,-1.629482 -0.01122,-0.14647 -0.0014,-0.293799 0,-0.440595 0.0035,-0.405868 0.0069,-0.400382 0.01489,-0.499259 z m 0.764408,10.600622 c -0.04849,0.0025 -0.108526,0.01747 -0.160998,0.02636 -0.0194,0.0055 -0.03893,0.01073 -0.05819,0.01796 0.0014,-4.3e-5 -0.07084,0.0049 0.197525,-0.02636 -0.182479,0.05499 -0.22896,0.06623 -0.324706,0.09219 -0.0085,0.0043 -0.016,0.01079 -0.02438,0.01557 0.0028,0.01324 0.0028,0.03402 0.0055,0.04787 0.03914,-0.0018 0.0904,-0.0012 0.166409,-0.0025 0.04419,-6.13e-4 0.08841,6.13e-4 0.13259,0 0.02799,-0.06539 0.06234,-0.12618 0.129883,-0.165222 -0.01988,-1.35e-4 -0.04378,-0.007 -0.06359,-0.0061 z m -0.370701,0.125709 c -5.34e-4,-0.0025 -6.93e-4,-0.0061 -0.0014,-0.0084 -0.279285,0.07544 -0.299782,0.0837 -0.289523,0.19396 0.0055,-6.13e-4 0.01171,-0.0018 0.0176,-0.0025 0.08479,-0.07127 0.176792,-0.128448 0.273293,-0.183183 z m -0.0014,-0.0084 c 0.0071,-0.0018 0.01815,-0.0049 0.0257,-0.0072 0.04295,-0.02311 0.08315,-0.04922 0.12718,-0.06585 -4.84e-4,1.2e-5 -0.05846,0.0083 -0.0568,0.0084 -0.0014,0.0018 -0.0073,0.0043 -0.01081,0.0072 -6.92e-4,3.49e-4 0.0055,-4.05e-4 0.0042,0 -0.0028,6.13e-4 -0.0028,3.55e-4 -0.0055,0.0012 -0.0062,0.0043 -0.0035,0.0055 -0.01621,0.01195 -0.02002,0.01018 -0.04406,0.01201 -0.06491,0.02035 -0.0014,0.0043 -0.0055,0.007 -0.0042,0.01195 6.93e-4,0.0031 5.82e-4,0.0087 0.0014,0.01195 z m 0.0028,-0.02397 c 0.0014,-0.0043 0.0021,-0.0086 0.0055,-0.01195 -0.02487,0.0074 -0.03429,0.0092 -0.0568,0.01557 0.01545,5.88e-4 0.03062,-0.0037 0.046,-0.0025 0.0014,-6.13e-4 0.0035,-5.21e-4 0.0055,-0.0012 z m -0.0055,0.0012 c -0.07014,0.0063 -0.04863,0.0093 -0.07847,0.01195 0,0 0.0014,-0.0012 0.0014,-0.0012 2.01e-4,-2.7e-4 0.0062,-0.0018 0.0069,-0.0025 0.0014,-0.0012 0.0089,-0.0043 0.01219,-0.0061 -0.03041,-6.13e-4 -0.06027,0.0037 -0.09065,0.0049 -0.06705,0.01845 -0.159564,0.0491 -0.240819,0.07423 v 0.01913 c 0.04004,-0.01226 0.05694,-0.02434 0.113646,-0.03709 -0.01857,0.0111 -0.04052,0.02195 -0.08118,0.0407 0.123281,-0.0263 0.243182,-0.0594 0.35718,-0.104162 z m -0.07035,0.0084 c 0.0091,-0.0025 0.01476,-0.0031 0.02431,-0.0061 -0.0028,-1.04e-4 -0.0055,8.6e-5 -0.0081,0 -0.0096,0.0031 -0.0048,0.0025 -0.01621,0.0061 z m 0.284114,-0.07662 c 0.02355,-0.007 0.04669,-0.01821 0.07035,-0.02274 -0.0035,3.98e-4 -0.01192,6.13e-4 -0.01489,0.0012 -0.0309,0.007 -0.0604,0.01398 -0.112295,0.03114 0.01953,-0.0037 0.03831,-0.0064 0.0568,-0.0096 z m -0.129883,0.02035 c 0.0071,-1.47e-4 0.02009,-0.0018 0.02161,0 0,0 0.0014,0 0.0014,0 0.01503,-0.0031 0.03187,-0.0055 0.04329,-0.0096 -0.02286,0.0043 -0.04156,0.0043 -0.06629,0.0096 z m -0.104176,0.02158 c 0.02009,-0.0025 0.01946,-1.04e-4 0.03921,-0.0025 0.0042,-0.0018 0.0042,-0.0025 0.0081,-0.0037 -0.0071,0.0018 -0.02826,0.0025 -0.04738,0.0061 z M 46.399994,31.65958 c 0.02328,-0.0426 -0.06602,0.07517 -0.09876,0.112547 -0.0062,0.02599 -0.01323,0.05168 -0.01891,0.07782 0.04045,-0.06285 0.08218,-0.12526 0.117704,-0.190367 z m -0.232701,0.693219 c -0.0055,0.01612 -0.01268,0.04524 0.0055,0.05149 6.92e-4,3.25e-4 0.0021,5.88e-4 0.0028,0.0012 -4.1e-5,-0.0043 1.4e-5,-0.0088 0,-0.01318 -0.0028,-0.01312 -0.0035,-0.05235 -0.0081,-0.03948 z m -1.018769,2.483135 c -0.02217,0.0366 -0.252741,0.278027 -0.400468,0.478908 0.07659,-0.113068 0.163084,-0.224843 0.278704,-0.383126 0.02147,-0.01839 0.04212,-0.03678 0.06359,-0.05505 0.04967,-0.04248 0.0656,-0.0529 0.05819,-0.0407 z m -3.409408,2.084446 c -0.008,0.01508 -0.01794,0.02949 -0.02708,0.04432 0.01032,-0.01398 0.02175,-0.02703 0.03249,-0.0407 -0.0021,-0.0012 -0.0042,-0.0055 -0.0055,-0.0037 z m -6.786356,1.537298 c -5.2e-4,2.57e-4 -0.01739,0.0018 -0.01891,0.0025 -0.0028,0.0012 -0.01046,0.0037 -0.01351,0.0049 0.0048,-4.97e-4 0.0069,-6.13e-4 0.01081,-0.0012 0.0072,-0.0025 0.01351,-0.0043 0.02161,-0.0061 z m -0.05278,0.131697 c 0.0042,0.02323 0.0048,0.05419 0.0081,0.07902 0.0021,-2.39e-4 0.0035,2.33e-4 0.0055,0 0.0035,-0.02428 0.0035,-0.0488 0.0069,-0.07304 -0.0028,-0.0012 -0.01905,-0.0049 -0.0203,-0.0061 z" />
    </clipPath>
    <clipPath
       clipPathUnits="userSpaceOnUse"
       id="clipPath2110">
      <path
         id="path2112"
         style="fill:#ff0000;fill-opacity:1;fill-rule:nonzero;stroke:none"
         d="M 3.0997835,3.2008578 V 31.380538 H 26.295104 c -0.0271,-0.024 -0.0503,-0.0544 -0.0645,-0.0957 -0.32057,-0.93599 -0.54723,-1.57654 -0.73047,-2.13086 -0.0176,-0.003 -0.0352,-0.006 -0.0527,-0.01 -0.006,0.007 -0.0131,0.0129 -0.0195,0.0195 -0.10715,0.0182 -0.22255,0.0703 -0.33594,0.11523 0.002,0.0298 0.009,0.0609 0.008,0.0898 -0.006,-0.0286 -0.0116,-0.0573 -0.0176,-0.0859 -0.21018,0.0831 -0.41742,0.15326 -0.58203,0.0371 -0.0425,-0.03 -0.0781,-0.063 -0.11914,-0.0937 -0.15676,0.11239 -0.31307,0.21226 -0.46093,0.27929 -0.28401,0.12877 -0.61473,0.28657 -0.91407,0.19922 -0.71606,-0.20896 -1.32058,-0.69713 -1.98047,-1.04492 -0.10836,-0.56058 -0.38925,-1.11419 -0.32617,-1.68164 0.0523,-0.47053 0.38094,-0.87381 0.65235,-1.26172 0.13225,-0.18904 0.34176,-0.31478 0.5371,-0.4375 0.0939,-0.0589 0.18651,-0.0995 0.2793,-0.14844 0.0192,-0.16145 0.0562,-0.32762 0.0723,-0.48047 0.0211,-0.20146 0.0879,-0.40052 0.17383,-0.58398 0.008,-0.0181 0.017,-0.0255 0.0254,-0.043 -0.16642,-0.24049 -0.34079,-0.50926 -0.52735,-0.82617 -0.23437,-0.39816 0.0521,-0.80336 0.47461,-1.16992 0.22501,-0.37023 0.32696,-0.5429 0.71289,-1.00782 0.24048,-0.28967 0.56625,-0.59565 0.88282,-0.87695 0.0849,-0.10979 0.16886,-0.22062 0.2539,-0.33008 0.12367,-0.15917 0.24397,-0.32142 0.375,-0.47461 0.45292,-0.52949 0.58513,-0.65346 1.01953,-1.0996 0.61444,-0.57624 0.91851,-0.88771 1.16407,-0.74219 0.006,-0.0526 0.0159,-0.10563 0.0215,-0.15821 -0.17065,0.0512 -0.37752,0.11627 -0.42188,0.125 -0.0585,0.0115 0.0826,-0.0871 0.12696,-0.12695 0.10412,-0.0936 0.21041,-0.18428 0.31836,-0.27344 0.0133,-0.011 0.0322,-0.0235 0.0469,-0.0352 0.0438,-0.19815 0.35651,-0.36963 1.09375,-0.50391 0.62035,-0.11299 0.81489,-0.0967 1.27149,0.28906 0.1416,-0.0317 0.28392,-0.0593 0.42578,-0.0898 0.005,-2.6e-4 0.01,-0.007 0.0156,-0.006 0.003,6.1e-4 0.005,0.001 0.008,0.002 0.21268,-0.0456 0.42615,-0.0869 0.63868,-0.13281 0.12831,-0.0789 0.2537,-0.1639 0.39258,-0.2207 0.80506,-0.3295 0.76941,-0.22276 1.41601,-0.35156 0.13906,-0.0277 0.27606,-0.0632 0.41406,-0.0957 0.62262,-0.28341 1.30227,-0.41382 1.9668,-0.5664 0.23711,-0.0265 0.41499,-0.0541 0.58984,-0.0684 0.17486,-0.0143 0.34686,-0.0154 0.57618,0.0117 0.10024,0.0119 0.20583,0.0179 0.30664,0.0351 0.46373,-0.007 0.92882,-0.006 1.39257,-0.006 0.32262,-10e-4 0.64418,-0.002 0.9668,-0.002 0.29668,4.1e-4 0.47392,0.038 0.74414,0.13476 0.12011,0.0103 -0.006,-1.1e-4 0.25196,0.0215 0.10191,0.0133 0.20413,0.0319 0.30664,0.0391 0.16304,0.0115 0.32782,-0.02 0.49023,-0.002 0.39324,0.0438 0.63958,0.0902 0.88867,0.15039 0.14867,-0.0286 0.37297,0.12231 0.54492,0.14844 -0.22727,-0.0692 -0.38213,-0.10911 -0.54492,-0.14844 -0.0367,0.007 -0.0729,0.0157 -0.0976,0.0508 -0.18018,0.25489 -0.47118,0.60217 -0.75586,0.94531 0.0706,0.0182 0.14345,0.0287 0.21093,0.0547 0.0805,-0.004 0.16152,-0.009 0.24219,-0.01 0.10702,-0.0307 0.20802,-0.056 0.33789,-0.0957 0.0902,-0.0275 0.32075,-0.1691 0.26953,-0.0898 -0.054,0.0835 -0.13155,0.14723 -0.20703,0.21289 0.0947,0.008 0.18777,0.008 0.2832,0.0215 0.17713,-0.3347 0.36615,-0.647 0.59571,-0.875 0.1173,-0.11648 0.31211,0.10774 0.4707,0.1543 0.18915,0.0555 0.29699,0.0725 0.47266,0.10352 -0.92813,-0.10362 -1.15648,-0.11862 -1.51172,0.61914 0.0949,0.0138 0.18671,0.0446 0.28125,0.0645 0.25035,-0.0679 0.49422,-0.13581 0.79883,-0.21484 0.18851,-0.27284 0.27138,-0.30252 0.2207,-0.0606 0.3107,-0.0825 0.51989,-0.1281 0.92773,-0.25 0.20936,-0.0626 0.3821,0.23013 0.52149,0.39844 0.0479,0.0578 0.11308,0.12121 0.17383,0.18164 0.43727,-0.0194 1.06069,-0.0421 1.31445,0.15625 0.57955,0.45307 1.03505,1.05425 1.46875,1.64843 0.0908,0.12423 0.0539,0.30374 0.0664,0.45704 0.0239,0.29059 0.0145,0.48209 -0.002,0.69921 0.096,0.0696 0.19376,0.13675 0.2793,0.21875 0.28298,0.27128 0.44813,0.63893 0.55078,1.02149 0.0363,0.0567 0.0733,0.11308 0.10938,0.16992 0.10711,0.043 0.20599,0.0782 0.32421,0.13086 0.0144,0.006 0.006,0.031 0.008,0.0469 0.011,0.0805 0.0229,0.16134 0.0312,0.24218 0.005,0.054 0.008,0.10812 0.0137,0.16211 0.0333,0.0514 0.0659,0.10313 0.0996,0.1543 0.0467,0.07 0.0611,0.0901 0.0976,0.14648 0.26009,0.045 0.51188,0.20244 0.76954,0.2793 0.28816,0.73598 0.64113,1.44925 0.89257,2.19727 0.11479,-1.30853 0.23554,-0.2961 0.32227,0.30273 0.0124,0.45249 0.0158,0.72747 -0.008,1.01953 0.005,0.0133 0.0125,0.0257 0.0176,0.0391 0.38843,1.01261 0.60549,2.08206 0.69335,3.16211 0.0758,0.93194 -0.067,1.68293 -0.33984,2.25 h 11.41406 V 3.2001178 Z M 29.252134,16.812178 c -0.16292,0.0364 -0.32766,0.0636 -0.49024,0.10157 -0.15535,0.0363 -0.21437,0.0632 -0.29687,0.0937 0.0138,0.003 0.059,0.003 0.041,0.008 -0.0471,0.0134 -0.0953,0.0226 -0.14258,0.0352 0.14891,-0.0264 0.26774,-0.0532 0.45508,-0.0781 0.14641,-0.0194 0.39407,-0.0683 0.47852,0.0215 0.0307,-0.0221 0.061,-0.0446 0.0918,-0.0664 -0.0509,-0.046 -0.0921,-0.0776 -0.13671,-0.11524 z m -0.88868,0.23829 c -0.0193,0.003 -0.0399,0.008 -0.0586,0.0117 5.7e-4,0.001 0.001,0.002 0.002,0.004 0.019,-0.005 0.0377,-0.0106 0.0566,-0.0156 z m -0.0566,0.0156 c -0.0176,0.005 -0.0351,0.009 -0.0527,0.0137 -0.003,0.0585 -0.001,0.11731 -0.004,0.17578 0.0871,0.0325 0.1551,0.0821 0.16993,0.17774 0.009,0.0603 0.0106,0.12128 0.0176,0.18164 0.0226,-0.0123 0.0493,-0.0234 0.0879,-0.0391 -0.002,-0.004 -0.004,-0.008 -0.006,-0.0117 -0.0299,0.0101 0.0251,-0.009 -0.0254,0.008 0.007,-0.005 0.0143,-0.0105 0.0215,-0.0156 -0.0701,-0.16509 -0.13991,-0.30856 -0.20899,-0.49023 z m 0.13086,0.54883 c -0.0167,0.009 -0.0656,0.025 -0.0645,0.0293 0.005,0.0177 0.0162,0.0369 0.0215,0.0547 0.019,0.0129 0.0377,0.0262 0.0566,0.0391 -0.004,-0.041 -0.009,-0.0821 -0.0137,-0.12305 z m -0.043,0.084 c -0.0507,-0.0345 -0.10163,-0.0689 -0.15234,-0.10351 -0.005,0.132 -0.007,0.26427 -0.01,0.39648 0.0458,-0.0192 0.0872,-0.0439 0.13085,-0.0664 0.0324,-0.0204 0.0651,-0.0403 0.0977,-0.0605 -0.0216,-0.0553 -0.0503,-0.1119 -0.0664,-0.16602 z m -0.15234,-0.10351 c 0.004,-0.11315 0.003,-0.22679 0.008,-0.33985 -0.13917,-0.0518 -0.32561,-0.0491 -0.51562,-0.043 0,0 -0.002,0 -0.002,0 -0.0152,0.006 -0.0307,0.0116 -0.0449,0.0176 0.18494,0.12176 0.37131,0.24005 0.55469,0.36524 z m -0.55469,-0.36524 c -0.003,-0.002 -0.007,-0.002 -0.01,-0.004 -0.003,8.1e-4 -0.007,0.001 -0.01,0.002 -0.0377,0.0146 -0.077,0.0387 -0.11523,0.0547 0.0345,-0.0197 0.0921,-0.0348 0.13476,-0.0527 z m 0.56641,-0.15039 c 6e-5,-0.001 -6e-5,-0.003 0,-0.004 -0.002,-3.6e-4 -0.005,-0.002 -0.004,-0.004 -0.20836,0.0404 -0.37716,0.0888 -0.50976,0.13867 0.1715,-0.0427 0.34244,-0.0871 0.51367,-0.13086 z m -1.36719,-0.0527 c -0.0132,0.0595 0.0142,0.12339 0.0469,0.1875 0.0607,-0.0254 0.15497,-0.0232 0.26172,-0.0176 -0.0404,0.006 -0.13042,0.0258 -0.2461,0.0527 0.009,0.0146 0.008,0.0281 0.0195,0.043 0.15947,-0.0499 0.2311,-0.0738 0.26953,-0.0937 0.0801,0.006 0.16696,0.009 0.22266,0.0137 0.0553,0.004 0.13125,10e-4 0.19727,0 -0.18337,-0.12027 -0.36477,-0.24343 -0.55274,-0.35351 -0.0717,0.0537 -0.14956,0.11297 -0.21875,0.16797 z m 0.082,0.26562 c -0.0326,0.0102 -0.0486,0.0132 -0.082,0.0234 0.0387,0.0939 0.0731,0.14773 0.11133,0.23633 0.0512,-0.0303 0.10406,-0.0482 0.15625,-0.0762 -0.073,-0.0625 -0.14123,-0.12426 -0.18555,-0.1836 z m 0.18555,0.1836 c 0.0448,0.0384 0.0828,0.0758 0.13672,0.11523 0.0147,-0.10415 0.0723,-0.18986 0.17187,-0.26367 -0.10337,0.0458 -0.20577,0.0933 -0.30859,0.14844 z m -0.20508,-0.22657 c -0.007,-0.0119 -0.01,-0.0234 -0.0156,-0.0352 -0.022,0.009 -0.0231,0.0288 -0.0312,0.0449 0.0251,-0.006 0.0249,-0.005 0.0469,-0.01 z m 9.37891,-1.74414 c 0.35194,0.28701 0.63773,0.66491 0.99609,0.93555 7.2e-4,5.4e-4 10e-4,0.001 0.002,0.002 0.0117,0.009 0.0252,0.0149 0.0371,0.0234 0.0326,-0.003 0.0651,-0.003 0.0977,-0.004 0.0458,-8.1e-4 0.091,0.003 0.13672,0.002 -0.17162,-0.23269 -0.55111,-0.6211 -0.76758,-0.75977 -0.15274,-0.0978 -0.32508,-0.15388 -0.50195,-0.19922 z m 8.36914,2.70508 c -0.005,0.0211 -0.0125,0.0718 -0.0195,0.10742 0.006,0.003 0.0222,0.0128 0.0273,0.0156 -0.005,-0.0425 -0.0112,-0.0855 -0.008,-0.12305 z m -21.35352,2.80469 c -0.35713,0.16967 -0.64485,0.56988 -0.93359,0.99414 0.14819,-0.12662 0.30681,-0.24952 0.47266,-0.36328 0.0647,-0.0836 0.12684,-0.1679 0.19531,-0.24805 0.0833,-0.13144 0.17691,-0.25503 0.26562,-0.38281 z m -1.23828,4.32422 c -0.014,0.0155 -0.0243,0.0343 -0.0371,0.0508 0.003,-0.002 0.005,-0.004 0.008,-0.006 0.0108,-0.0139 0.0225,-0.0271 0.0332,-0.041 -0.002,-5e-4 -0.003,-0.005 -0.004,-0.004 z m -0.0703,0.50195 c -0.0296,0.15513 -0.21075,0.36318 -0.0898,0.46484 0.005,0.004 0.0106,0.008 0.0156,0.0117 0.0251,-0.15878 0.0499,-0.31767 0.0742,-0.47656 z m 2.125,3.20899 c -0.11858,0.0156 -0.25429,0.0296 -0.19922,0.0645 0.0426,0.027 0.12669,-0.008 0.21094,-0.0547 -0.004,-0.003 -0.008,-0.007 -0.0117,-0.01 z m 3.92969,2.11328 c -0.10735,0.005 -0.21492,0.0135 -0.32227,0.0195 -0.14344,0.0526 -0.29133,0.0947 -0.44922,0.10742 -0.119,0.01 -0.2717,0.053 -0.41797,0.0898 h 1.53907 c -0.10906,-0.0668 -0.21536,-0.13378 -0.3125,-0.20898 -0.0124,-0.002 -0.0248,-0.005 -0.0371,-0.008 z" />
    </clipPath>
    <clipPath
       clipPathUnits="userSpaceOnUse"
       id="clipPath2122">
      <path
         id="path2124"
         style="fill:#ff0000;fill-opacity:1;fill-rule:nonzero;stroke:none"
         d="M 3.0997835,29.823898 V 62.700859 H 31.000174 V 43.237968 c -0.0155,-0.0155 -0.025,-0.0343 -0.0508,-0.0449 -0.0552,-0.0209 -0.11408,-0.0345 -0.16601,-0.0625 -0.011,-0.006 0.025,-0.004 0.0371,-0.006 l 0.17968,-0.0234 v -0.006 c -0.11069,0.01 -0.2213,0.0307 -0.33203,0.0234 -0.11612,-0.008 -0.11654,-0.0103 -0.20117,-0.0156 0.1524,0.21156 0.29971,0.40765 0.48828,0.71289 0.21847,0.35364 -0.82579,-0.21134 -1.1582,-0.46094 -0.17178,-0.12899 -0.32374,-0.29947 -0.46094,-0.48437 -0.0588,-0.0231 -0.1165,-0.048 -0.17383,-0.0742 -1.06931,-0.21085 -0.83302,-0.10098 -1.51953,-0.56445 -0.0807,-0.0749 -0.2253,-0.21106 -0.35937,-0.34766 -0.97863,-0.56915 -1.54099,-1.65771 -1.9375,-2.73242 -0.16979,-0.12522 -0.33831,-0.27692 -0.52344,-0.48242 -0.13826,-0.1547 -0.46989,-0.5242 -0.49219,-0.5586 -0.0464,-0.0719 -0.0715,-0.14047 -0.11133,-0.21094 -0.155,-0.0761 -0.30892,-0.27523 -0.6875,-0.71875 -0.0727,-0.13577 -0.15449,-0.26629 -0.21875,-0.40625 -0.34728,-0.75637 -0.519,-1.57092 -0.63281,-2.39257 -0.0807,-0.0534 -0.11687,-0.20049 -0.13476,-0.45899 -0.028,-0.0224 -0.0718,-0.0604 -0.0977,-0.0801 -0.0424,-0.0323 -0.062,-0.0822 -0.082,-0.13281 0.001,0.0193 4.2e-4,0.0372 0.002,0.0566 0.002,0.0216 -0.007,-0.0427 -0.008,-0.0644 0.001,0.003 0.005,0.005 0.006,0.008 -0.004,-0.0507 -4.4e-4,-0.0982 -0.004,-0.14844 -0.001,0.046 -0.003,0.0927 -0.002,0.13868 -0.0242,-0.0642 -0.0439,-0.13093 -0.0762,-0.18946 -0.0754,-0.13691 -0.16978,-0.26277 -0.25391,-0.39453 0.31955,0.35168 -0.44219,-0.61082 -0.30469,-0.48047 0.20369,0.19309 0.30654,0.53531 0.57617,0.61328 0.0167,0.005 0.0341,0.005 0.0508,0.01 -0.008,-0.17392 -0.019,-0.34985 -0.0156,-0.52148 -0.0306,-0.023 -0.0612,-0.0457 -0.0918,-0.0684 0.0491,0.45423 0.0541,0.6098 -0.0703,-0.0547 -0.0495,-0.0363 -0.0991,-0.076 -0.14844,-0.11133 -0.0641,-0.0458 -0.0669,-0.12469 -0.0527,-0.21094 -0.07,-0.013 -0.14127,-0.0162 -0.21094,-0.0312 -0.25304,-0.0548 -0.0614,-0.51466 -0.0527,-0.77343 0.004,-0.11224 0.11057,-0.7726 0.18359,-0.97461 0.018,-0.0497 0.0411,-0.0974 0.0606,-0.14649 -0.24519,-0.20712 -0.4181,-0.39163 -0.48633,-0.54297 z m 27.7441405,0 c 0.0328,0.20868 0.0658,0.41552 0.10157,0.60157 0.0189,0.0108 0.0361,0.0224 0.0547,0.0332 v -0.63477 z m -8.61914,2.50586 c 0.009,0.0153 0.0227,0.0403 0.0352,0.0625 0.0305,-0.007 0.0613,-0.014 0.0918,-0.0215 6e-4,-0.007 0.001,-0.0144 0.002,-0.0215 -0.0431,-0.006 -0.0859,-0.013 -0.12891,-0.0195 z m 0.23438,0.70313 c -0.006,0.097 0.005,0.16666 0.008,0.24804 0.015,0.003 0.0299,0.007 0.0449,0.01 -0.003,-0.0776 -0.006,-0.13205 -0.01,-0.22266 -0.0208,0.0788 -0.0263,0.0727 -0.043,-0.0351 z m 0.0117,0.36523 c 0.01,0.10937 0.0297,0.19864 0.0566,0.27735 -9.7e-4,-0.0182 -9.4e-4,-0.0259 -0.002,-0.0449 -6e-5,-0.0143 6e-5,-0.0286 0,-0.043 -0.003,-0.0484 -0.005,-0.1199 -0.008,-0.17578 -0.0157,-0.004 -0.0312,-0.009 -0.0469,-0.0137 z m 0.61132,0.96485 c -0.0139,0.004 -0.0201,0.002 -0.0332,0.006 0.0211,0.008 0.0424,0.0159 0.0645,0.0195 -0.0116,-0.009 -0.0198,-0.0162 -0.0312,-0.0254 z m -0.32031,0.0527 c 6.2e-4,0.006 0.004,0.0161 0.004,0.0215 0.002,0.022 0.0221,0.086 0.0176,0.0645 -0.006,-0.028 -0.011,-0.0562 -0.0176,-0.084 -0.002,-9e-5 -0.002,-0.002 -0.004,-0.002 z m 6.78906,3.73828 c -4.3e-4,0.003 0.002,0.0299 0.002,0.0312 0.0131,-0.003 0.0259,-0.003 0.0391,-0.006 -0.0138,-0.008 -0.0272,-0.0172 -0.041,-0.0254 z m -0.3164,4.6543 c 0.007,0.002 0.0103,0.003 0.0156,0.004 0.0142,0.002 0.0222,3.6e-4 0.043,0.002 -8.2e-4,-10e-4 -10e-4,-0.003 -0.002,-0.004 -0.0188,-0.001 -0.038,8.9e-4 -0.0566,-0.002 z" />
    </clipPath>
    <clipPath
       clipPathUnits="userSpaceOnUse"
       id="clipPath2134">
      <path
         id="path2136"
         style="fill:#ff0000;fill-opacity:1;fill-rule:nonzero;stroke:none"
         d="m 34.500174,27.800468 v 7.21093 c 0.20461,-0.0391 0.39806,-0.0877 0.62891,-0.10547 0.19151,-0.0147 0.38388,-0.0188 0.57422,-0.0449 0.25609,-0.0348 0.509,-0.10042 0.76367,-0.1543 0.30028,-0.12094 0.61707,-0.19522 0.92578,-0.29296 0.256,-0.0806 0.19561,-0.0614 0.34766,-0.10938 0.36185,-0.22549 0.71595,-0.46468 1.06445,-0.70703 0.13214,-0.0919 0.12759,-0.089 0.20898,-0.14453 0.007,-0.008 0.0175,-0.0178 0.0215,-0.0234 0.0282,-0.0325 0.0568,-0.0659 0.0859,-0.0977 0.10148,-0.11118 0.19529,-0.22874 0.30664,-0.33007 0.0995,-0.0906 0.92195,-0.7593 1.05469,-0.6543 1.30505,1.03228 2.12052,1.57386 2.56445,1.94922 0.61586,-0.16192 1.18,-0.0595 1.41992,0.72461 0.1135,-0.21382 0.14763,-0.29023 0.36133,-0.58008 0.0793,-0.10745 0.15651,-0.22202 0.25976,-0.30664 0.25893,-0.21221 0.53568,-0.40189 0.82032,-0.57813 0.12638,-0.0782 0.46195,-0.20025 0.63086,-0.26367 1.48295,-0.48778 0.55022,-0.24269 2.6621,3.3086 0.0269,0.0452 0.01,0.0908 -0.0195,0.13476 0.1145,0.0831 0.23441,0.1585 0.34571,0.2461 0.12593,0.0991 -0.14478,0.28602 -0.22657,0.42382 -0.17085,0.28793 -0.41995,0.51776 -0.68359,0.72852 -0.30992,0.31488 -0.62085,0.62936 -0.93359,0.94141 -0.0381,0.038 -0.072,0.1454 -0.11524,0.11328 -0.0492,-0.0365 -0.0956,-0.0765 -0.14453,-0.11328 -0.0337,0.0546 -0.0732,0.10468 -0.10351,0.16211 -0.23695,0.32965 -0.35719,0.52994 -0.70899,0.80664 -0.002,10e-4 -0.004,0.002 -0.006,0.004 -0.0151,0.0437 -0.0204,0.0813 -0.0391,0.12696 -0.0281,0.0684 -0.0768,0.12486 -0.11133,0.18945 -0.16251,0.38342 -0.33359,0.76306 -0.58008,1.10351 -0.0879,0.0917 -0.17751,0.18191 -0.26367,0.27539 -0.0184,0.27006 -0.0669,0.47475 -0.17383,0.76954 -0.13579,0.31116 -0.21757,0.52903 -0.4375,0.82421 -0.16732,0.22457 -0.34569,0.4423 -0.55273,0.63086 -0.56927,0.51843 -1.35293,0.88849 -2.12305,0.92969 -0.25271,-0.005 -0.10187,-0.0203 -0.39648,0.0684 -0.0511,0.0154 -0.10157,0.0536 -0.1543,0.0449 -0.4922,-0.08 -1.00212,-0.11362 -1.49805,-0.18945 -0.34143,0.22571 -0.61834,0.32 -0.8457,0.32226 -0.0556,0.0383 -0.10735,0.0826 -0.16211,0.1211 -0.34473,0.24238 -0.55555,0.40137 -1.03711,0.52734 -0.19991,0.0522 -0.40779,0.0654 -0.61523,0.0762 -0.0687,0.0137 -0.13463,0.02 -0.20117,0.0215 -0.23531,0.11425 -0.0668,0.10504 -0.70508,0.125 -0.11259,-0.008 -0.22704,-0.006 -0.33789,-0.0273 -0.006,-10e-4 -0.008,-0.003 -0.0137,-0.004 0,0 -0.002,0 -0.002,0 0.0116,0.004 -0.0337,0.002 -0.0508,0.002 -0.26835,0.004 -0.1432,0.002 -0.375,0.006 -0.47544,0.008 -0.95995,-0.0141 -1.42969,-0.10547 v 16.814461 h 27.90039 V 27.800788 Z m 2.91407,18.08984 c 0.008,-0.004 0.0129,-0.008 0.0215,-0.0117 -0.049,0.003 -0.0978,0.005 -0.14648,0.01 0.0393,0.006 0.0828,0.003 0.125,0.002 z m 0.02148,-0.01172 c 0.06,-0.004 0.11952,-0.007 0.17969,-0.01 0.18457,-0.0369 0.36531,-0.10377 0.48242,-0.14257 0.10704,-0.0355 0.40136,-0.20092 0.29297,-0.16993 -0.58999,0.16863 -0.8167,0.25803 -0.95508,0.32227 z m 1.99414,-0.73438 c 0.17586,-0.12136 0.35382,-0.24217 0.51367,-0.38281 -0.26799,-0.0563 -0.53065,-0.12859 -0.77929,-0.24414 -0.15967,-0.0742 -0.28482,-0.24348 -0.39649,-0.4375 -0.0587,0.0172 -0.12049,0.0306 -0.18164,0.0449 0.11374,0.60619 0.36593,1.02431 0.84375,1.01953 z m 0.51367,-0.38281 c 0.10977,0.0231 0.22035,0.0435 0.33203,0.0606 0.31183,-0.20614 0.67831,-0.52462 1.10157,-0.96094 -0.12441,0.1084 -0.24749,0.21954 -0.38086,0.31641 -0.11603,0.0843 -0.24848,0.14371 -0.37305,0.21484 -0.20871,0.11925 -0.42178,0.22841 -0.63672,0.33594 -0.0133,0.0122 -0.0294,0.0213 -0.043,0.0332 z m 0.13281,-11.94922 c -0.0881,-0.0133 -0.21014,0.0361 -0.33593,0.0957 -0.41926,0.50984 -0.63744,0.755 -0.62696,0.96679 0.0309,-0.01 0.0523,-0.0163 0.0879,-0.0273 0.1275,-0.0563 0.25364,-0.11512 0.38477,-0.16211 0.46497,-0.16658 0.64344,-0.21236 0.87305,-0.25781 -0.0548,-0.34638 -0.16654,-0.5825 -0.38282,-0.61524 z m -0.38281,0.11914 c -0.17985,0.0956 -0.38379,0.23877 -0.65039,0.50196 0.29598,-0.20141 0.44944,-0.31699 0.65039,-0.50196 z m 1.16016,0.41797 c 0.009,-0.002 -0.0285,-0.005 -0.0274,0.004 0,0 0,0.002 0,0.002 0.0134,-0.003 0.0133,-0.003 0.0274,-0.006 z m 0.76953,0.63086 c 0.15409,0.21275 0.30728,0.42899 0.45703,0.64844 0.0736,-0.0135 0.10236,-0.002 0.0606,0.0488 0.0324,-0.0185 0.0668,-0.0329 0.0996,-0.0508 -0.24292,-0.23981 -0.46805,-0.46802 -0.61719,-0.64649 z m 3.79102,7.79688 c -0.005,0.002 -0.0101,0.006 -0.0156,0.01 -0.004,0.005 -0.009,0.0116 -0.0137,0.0176 0.007,-0.002 0.0144,-0.004 0.0215,-0.006 0.0152,-0.0263 0.003,-0.0117 0.008,-0.0215 z m -1.25391,1.6289 c -0.064,0.0466 -0.16641,0.13769 -0.25391,0.21485 0.0113,-0.007 0.0287,-0.009 0.0391,-0.0156 0.11538,-0.10242 0.29374,-0.25671 0.21484,-0.19922 z" />
    </clipPath>
    <clipPath
       clipPathUnits="userSpaceOnUse"
       id="clipPath2216">
      <path
         id="path2218"
         style="fill:#ff0000;fill-opacity:1;fill-rule:nonzero;stroke:none;stroke-width:0.651636"
         d="m 37.682766,20.72252 c -0.275978,0.0095 -0.462253,0.01586 -0.773135,0.02629 -0.24944,0.0083 -0.498988,0.01777 -0.748396,0.02629 -0.280316,0.100987 -0.575212,0.222096 -0.629643,0.05802 -0.449428,0.03991 -0.842189,0.06376 -0.853545,0.01749 -0.0019,-0.008 -0.0032,-0.01609 -0.0051,-0.0241 -0.301299,0.01054 -0.602972,0.02225 -0.904265,0.03285 -0.759131,0.03755 -1.519023,0.06482 -2.278585,0.09414 -0.05593,0.03357 -0.107626,0.06809 -0.168238,0.100712 -0.416386,0.224119 -0.863812,0.402502 -1.326085,0.541871 -0.09294,0.126455 -0.191247,0.252188 -0.388423,0.486042 -0.161619,0.191751 -0.319603,0.387622 -0.499754,0.565949 -0.0019,0.0017 -0.0032,0.0039 -0.0051,0.0056 -0.265008,0.740359 -0.430693,0.901839 -0.93395,1.644216 -0.663159,0.699438 -1.307097,1.475999 -2.168496,2.01203 0.0069,0.281444 -0.02134,0.560961 -0.06803,0.838532 0.02058,0.213666 -0.04503,0.433805 -0.123706,0.58894 -0.06373,0.245983 -0.133575,0.489915 -0.210293,0.731252 -4.4e-5,0.03637 -0.0013,0.06914 -0.0013,0.106182 0.01134,0.01441 0.01108,0.04562 0,0.09305 -0.0087,0.617592 -0.07583,1.29034 -0.493573,1.713183 -0.0057,0.09947 -0.0044,0.198919 -0.0235,0.297754 -0.0044,0.08254 -0.0051,0.165913 -0.01115,0.248494 -0.0051,0.06931 -0.0171,0.150427 -0.02723,0.232072 5.45e-4,0.101553 0.0025,0.167398 0.0025,0.221126 h 18.80888 c -0.0051,-0.03912 -0.01463,-0.07504 -0.0087,-0.125889 -0.05314,-0.136376 -0.07232,-0.254183 0.01609,-0.290093 -0.03103,-0.06423 -0.0025,-0.140893 -0.0025,-0.211273 -2.4e-4,-0.156132 0.01001,-0.312383 0.0099,-0.468526 -0.0025,-0.250305 -0.0032,-0.500643 -0.0025,-0.750953 1.3e-5,-0.0062 -1.2e-5,-0.01244 0,-0.01861 -1.2e-5,-5e-6 0,-0.01553 0,-0.02735 1.9e-5,-0.0087 -2.5e-5,-0.01749 0,-0.02629 2.6e-5,-0.0067 0.0013,-0.01171 0,-0.01967 -0.0013,-0.0067 -0.0063,-0.01648 0,-0.01642 h 0.0013 c 0.03939,-0.530297 0.08931,-1.06032 0.132365,-1.590578 0.02236,-0.413953 0.0057,-0.827654 -0.0074,-1.241377 -0.0145,-0.0011 -0.02375,-0.0028 -0.03838,-0.0045 -0.09623,-0.0086 -0.0077,-0.171624 -0.0099,-0.257248 -1.65e-4,-0.0066 1.39e-4,-0.01312 0,-0.01973 -0.0051,-0.09352 -0.01178,-0.187632 -0.0087,-0.28024 0.0025,-0.06963 -0.0013,-0.141577 0.0038,-0.211272 -0.100589,-0.06354 -0.07975,-0.182347 -0.0013,-0.325123 -0.0019,-0.04669 -0.0038,-0.09343 -0.0063,-0.14012 -0.237318,0.02741 -0.293224,-0.06826 -0.299361,-0.402844 h -0.0038 c -0.02134,0 3.1e-5,-0.03806 0,-0.05692 -1.21e-4,-0.07138 1.33e-4,-0.142076 0,-0.213464 -7e-6,-0.005 1.2e-5,-0.01026 0,-0.01536 -2.09e-4,-0.110678 -0.0025,-0.222085 -0.0025,-0.332785 -5.32e-4,-0.272684 0.0013,-0.545206 0.0025,-0.817728 -0.107784,-0.174107 -0.234721,-0.337912 -0.368631,-0.496987 0.05567,0.05386 0.113072,0.105403 0.169473,0.158727 0.03737,0.02505 0.13852,0.110039 0.112566,0.07554 -0.153608,-0.203947 -0.378233,-0.373744 -0.529446,-0.576901 -0.03205,-0.01289 -0.03034,-0.0116 -0.06927,-0.02735 -0.764116,-0.308993 -0.719173,-0.295558 -1.432469,-0.609746 -0.0943,-0.04461 -0.188056,-0.08835 -0.282039,-0.13355 -0.126037,-0.0056 -0.251974,-0.01603 -0.37853,-0.04927 -0.100704,-0.0082 -0.203592,-0.02158 -0.366155,-0.03834 -0.06845,-0.01143 -0.135652,-0.02253 -0.204111,-0.03391 0.102186,0.0084 0.245805,0.01188 0.399558,0.0099 -0.02616,-0.01071 -0.05269,-0.01457 -0.07917,-0.02735 -0.116341,-0.05652 -0.212244,-0.13836 -0.304308,-0.22441 -0.05738,-0.02489 -0.07372,-0.03497 -0.144728,-0.06459 -0.06048,-0.06764 -0.224593,-0.223132 -0.259776,-0.269293 0.0089,0.0022 0.01824,0.0039 0.02723,0.0066 -0.0038,-0.0022 -0.0057,-0.0064 -0.0099,-0.0087 -0.02635,-0.01698 -0.02888,-0.01407 -0.01729,0.0011 -0.103927,-0.02528 -0.209203,-0.04848 -0.31173,-0.07772 -0.03598,-0.01031 -0.06961,-0.02517 -0.103908,-0.0394 0.01311,0.05582 0.02654,0.111631 0.03959,0.167488 0.242454,0.141213 0.485174,0.2814 0.670462,0.475096 0.138527,0.144805 -0.402104,-0.12919 -0.603663,-0.193758 -0.02198,-0.0938 -0.0449,-0.187547 -0.0668,-0.281338 -0.176618,-0.102864 -0.347123,-0.211625 -0.499755,-0.337161 -0.0178,-0.0064 -0.01767,-0.0077 -0.04205,-0.01642 -0.01184,-0.0045 -0.03502,-0.01048 -0.0532,-0.0153 -0.0875,0.01009 -0.0038,-0.0028 -0.131123,0.01312 -0.228286,-0.02292 -0.460658,-0.03077 -0.68655,-0.06787 -0.09695,-0.01592 -0.267535,-0.0687 -0.419349,-0.111653 z m 2.235296,0.492605 c 0.140357,0.09283 0.255754,0.213638 0.377288,0.327314 0.0584,0.02539 0.101153,0.04478 0.147205,0.06568 -0.06394,-0.07675 -0.133188,-0.202573 -0.20287,-0.333877 -0.05396,-0.0056 -0.107784,-0.0083 -0.160815,-0.01861 -0.05447,-0.01071 -0.10691,-0.02774 -0.160808,-0.04052 z m 4.019073,4.280222 c 0.0025,0.05325 0.0051,0.106563 0.0074,0.159826 -5e-5,0.04344 3.49e-4,0.0868 0,0.130266 0.0044,-0.02595 0.0019,-0.0533 0.01362,-0.07772 0.01089,-0.02326 0.02565,-0.04484 0.03712,-0.06787 0.009,-0.117191 0.02869,-0.214176 0.0544,-0.299941 -0.0057,0.0011 -0.0091,0.0011 -0.01482,0.0022 -0.03629,0.05291 -0.07052,0.103835 -0.09773,0.153258 z m 0.0074,0.290092 c -0.0019,0.01171 -0.0051,0.02309 -0.0063,0.03503 0.0019,0.0011 0.0038,0.0028 0.0063,0.0045 1.21e-4,-0.01317 -1.07e-4,-0.02623 0,-0.0394 z m -0.08411,5.178955 c 6.33e-4,0.0017 2.59e-4,0.0039 0.0013,0.0056 0.0063,0.01121 0.01368,0.02163 0.01976,0.03284 0.0025,-0.01525 0.0032,-0.03211 0.0063,-0.04814 -0.01096,0.0017 -0.01849,0.0063 -0.02723,0.0099 z m 0.02103,0.03834 c -0.01469,0.07976 -0.03015,0.192962 -0.03712,0.251778 0.01748,0.04495 0.03971,0.0825 0.06061,0.12589 h 0.129889 c 0.0051,-0.03481 0.0044,-0.06632 0.01115,-0.101806 -0.05624,-0.09131 -0.113396,-0.182156 -0.164527,-0.275862 z M 25.808616,27.737263 c 0.05061,-0.195165 0.09047,-0.391316 0.123707,-0.588941 -0.0073,-0.07634 -0.02806,-0.150118 -0.06188,-0.220032 -0.01165,0.05768 -0.01406,0.08803 -0.03217,0.18391 -0.0494,0.262573 -0.09446,0.52648 -0.142258,0.789266 0.0342,-0.0329 0.07341,-0.08701 0.112566,-0.164203 z m 13.649276,-6.899805 c 0.0051,-0.0011 -0.04408,0.0039 -0.04085,0.0034 1.96e-4,5.6e-4 0.0013,0.0028 0.0013,0.0034 0.01134,-0.0022 0.03167,-0.005 0.03959,-0.0066 z m 0.410686,0.03834 c -0.01818,0.005 0.125657,0.118502 0.282045,0.234263 -0.01482,-0.03167 -0.02926,-0.06322 -0.04453,-0.09743 -0.07172,-0.04265 -0.107942,-0.06734 -0.197923,-0.11932 -0.0235,-0.01362 -0.0354,-0.01866 -0.03959,-0.01749 z m -0.181843,0.07882 c -0.08765,-0.04036 0.152582,0.111922 0.22885,0.167488 0.142885,0.05145 0.228578,0.09122 0.306784,0.121506 -0.0044,-0.0083 -0.008,-0.01553 -0.01235,-0.0241 -0.09654,-0.05566 -0.20242,-0.117342 -0.523265,-0.26491 z m 0.760772,0.319647 c -0.0088,2.8e-4 -0.0091,0.0039 -0.01235,0.0066 0.02242,0.0011 0.04516,0.0028 0.0767,0.0066 -0.01583,-0.0017 -0.05523,-0.01345 -0.06432,-0.01311 z m 0.06432,0.01311 c 0.01115,0.0011 0.03084,0.0059 0.04579,0.0087 -0.0025,-0.0017 -0.0051,-0.0039 -0.0074,-0.0056 -0.01792,-0.0022 -0.0228,-0.0011 -0.03832,-0.0034 z m 0.04579,0.0087 c 0.02597,0.01872 0.06289,0.04198 0.07793,0.05476 0.0078,5.6e-4 0.01368,0.0028 0.02103,0.0034 0.0019,-0.0077 0.0073,-0.02141 0.0099,-0.02954 -0.033,-0.0086 -0.08628,-0.0241 -0.108861,-0.02847 z m 0.07793,0.05476 c -0.0078,-5.6e-4 -0.01476,-3.25e-4 -0.02229,-0.0011 0.01172,0.0034 0.02033,0.0071 0.03218,0.0099 -0.0019,-0.0017 -0.0078,-0.0069 -0.0099,-0.0087 z m -0.02229,-0.0011 c -0.06042,-0.01508 -0.118817,-0.03066 -0.166996,-0.05039 0.0063,0.0011 0.02141,0.0039 0.01609,0.0034 -0.0114,-0.0011 -0.01666,-0.0059 -0.02723,-0.0077 5.64e-4,5.61e-4 1.08e-4,0.0017 0.0013,0.0022 l 0.0013,0.0011 c 0.01102,0.01138 0.03547,0.0246 0.06188,0.0394 0.03363,0.0034 0.0737,0.0081 0.113801,0.01205 z m -0.17813,-0.05476 c -0.0057,-0.0068 -0.0057,-0.01087 0,-0.01424 -0.01178,-5.6e-4 -0.03129,-0.0045 -0.04085,-0.0045 0.0051,0.0022 0.01387,0.01093 0.01856,0.01312 0.0079,0.0011 0.01393,0.0045 0.02223,0.0056 z m -0.112566,-0.01093 c -0.02451,0.01833 0.05421,0.05241 0.0544,0.03609 -0.0063,-0.0022 -0.02337,-0.0075 -0.01735,-0.0066 0.0057,0.0011 0.0107,0.0034 0.01609,0.0045 -0.0013,-0.0056 -0.0051,-0.01272 -0.03338,-0.03172 -0.0069,-5.61e-4 -0.01317,-0.0017 -0.01976,-0.0022 z m 0.0532,0.03391 c 7e-5,3.42e-4 0.0013,0.0017 0.0013,0.0022 0.01159,0.0045 0.02065,0.0089 0.03217,0.0099 0.0063,5.61e-4 0.02141,0.0017 0.02844,0.0022 -0.02071,-0.005 -0.04117,-0.0096 -0.06188,-0.01424 z m 0.149681,0.03391 c 0.04332,0.02208 0.0884,0.04232 0.119995,0.05145 0.0019,-0.0088 0.0019,-0.01356 0.0051,-0.02298 -0.04142,-0.0097 -0.08353,-0.01883 -0.124942,-0.02847 z m 0.367396,0.414889 c -0.01672,0.0061 -0.03585,0.01838 -0.05193,0.02191 0.02065,-0.0017 0.03319,-0.0076 0.0532,-0.0099 l -0.0013,-0.0022 c 2.28e-4,-0.0045 -1.59e-4,-0.0058 0,-0.0099 z m -0.653146,0.0153 c -0.01045,-0.0011 0.02172,0.0011 0.03217,0.0011 0.0019,2.58e-4 0.0044,5.6e-4 0.0063,0.0011 -0.01032,-5.61e-4 -0.02901,-0.0017 -0.03832,-0.0022 z m -11.140593,0.10509 c -0.0057,0.0034 -0.01279,0.0066 -0.01856,0.0099 0.0051,0.01676 0.0102,0.03341 0.01235,0.05033 0.0072,-0.01743 0.01343,-0.03094 0.02103,-0.04927 -0.0044,-0.0034 -0.0094,-0.0073 -0.01482,-0.01093 z m 0.153386,0.3295 c -0.0051,0.0056 -0.01235,0.01334 -0.01729,0.01861 -0.0019,0.0068 -0.0032,0.01401 -0.0051,0.02079 0.0069,-0.01295 0.01735,-0.02679 0.02223,-0.0394 z m 14.08223,0.58894 c 0.0077,0.02433 0.03686,0.09177 0.06432,0.133551 0.02723,0.04103 0.05067,0.06147 0.07546,0.09196 -0.04415,-0.07447 -0.08725,-0.149929 -0.133594,-0.223318 -0.0013,-5.6e-4 -0.0038,-0.0017 -0.0063,-0.0022 z m -17.338062,3.506278 c -0.0063,0.0039 -0.01349,0.0081 -0.01976,0.01205 -0.0051,0.02371 -0.01121,0.0643 -0.01609,0.09414 0.02014,-0.02931 0.02685,-0.06783 0.03585,-0.106182 z" />
    </clipPath>
  </defs>
  <metadata
     id="metadata5">
    <rdf:RDF>
      <cc:Work
         rdf:about="">
        <dc:format>image/svg+xml</dc:format>
        <dc:type
           rdf:resource="http://purl.org/dc/dcmitype/StillImage" />
        <dc:title></dc:title>
      </cc:Work>
    </rdf:RDF>
  </metadata>
  <g
     id="layer1"
     transform="translate(-69.298152,-42.02153)">
    <g
       id="g47"
       transform="matrix(0.26458333,0,0,0.26458333,68.477944,41.174832)">
      <g
         id="g28">
        <path
           d="M 3.1,34 V 62.7 H 31 V 35.2 C 18.2,25 6,32.1 3.1,34 Z"
           id="path20"
           clip-path="url(#clipPath2122)" />
        <path
           d="M 34.5,36.6 V 62.7 H 62.4 V 27.8 c -1.5,1.6 -14,12.6 -27.9,8.8 z"
           id="path22"
           clip-path="url(#clipPath2134)" />
        <g
           id="g26">
          <path
             class="st0"
             d="M 32.9,30.4 C 47.1,35.7 62.4,17.8 62.4,17.8 V 3.2 H 3.1 v 28 c 10.6,-6.7 15.9,-6 29.8,-0.8 z"
             id="path24"
             clip-path="url(#clipPath2110)"
             style="fill:#f39619;fill-opacity:1" />
        </g>
      </g>
    </g>
  </g>
  <g
     id="layer2"
     transform="translate(-69.298152,-42.02153)">
    <g
       id="g1195"
       transform="matrix(0.42962086,0,0,0.48548121,63.042841,34.296606)">
      <g
         id="g1176">
        <path
           d="M 3.1,34 V 62.7 H 31 V 35.2 C 18.2,25 6,32.1 3.1,34 Z"
           id="path1168"
           clip-path="url(#clipPath1824)" />
        <path
           d="M 34.5,36.6 V 62.7 H 62.4 V 27.8 c -1.5,1.6 -14,12.6 -27.9,8.8 z"
           id="path1170"
           clip-path="url(#clipPath1908)" />
        <g
           id="g1174">
          <path
             class="st0"
             d="M 32.9,30.4 C 47.1,35.7 62.4,17.8 62.4,17.8 V 3.2 H 3.1 v 28 c 10.6,-6.7 15.9,-6 29.8,-0.8 z"
             id="path1172"
             clip-path="url(#clipPath2216)"
             style="fill:#f39619;fill-opacity:1" />
        </g>
      </g>
    </g>
  </g>
  <g
     id="layer3"
     transform="translate(-69.298152,-42.02153)">
    <g
       style="fill:#f0f0f0;stroke:#000000;stroke-width:0.00512;fill-opacity:1"
       id="g1042"
       transform="matrix(-0.0242888,0,0,0.0242888,82.591106,44.60431)">
      <g
         id="SVGRepo_bgCarrier"
         stroke-width="0"
         style="fill:#f0f0f0;fill-opacity:1" />
      <g
         id="SVGRepo_tracerCarrier"
         stroke-linecap="round"
         stroke-linejoin="round"
         style="fill:#f0f0f0;fill-opacity:1" />
      <g
         id="SVGRepo_iconCarrier"
         style="fill:#f0f0f0;fill-opacity:1">
        <style
           type="text/css"
           id="style1016"> .st0{fill:#f0f0f0;} </style>
        <g
           id="g1024"
           style="fill:#f0f0f0;fill-opacity:1">
          <path
             class="st0"
             d="m 312.069,53.445 c -71.26,-71.26 -187.194,-71.26 -258.454,0 -71.261,71.26 -71.261,187.206 0,258.466 71.26,71.26 187.194,71.26 258.454,0 71.26,-71.26 71.26,-187.206 0,-258.466 z m -25.375,233.091 c -57.351,57.34 -150.353,57.34 -207.704,-0.011 -57.351,-57.351 -57.351,-150.353 0,-207.693 57.351,-57.351 150.342,-57.351 207.693,0 57.351,57.351 57.362,150.342 0.011,207.704 z"
             id="path1018"
             style="fill:#f0f0f0;fill-opacity:1" />
          <path
             class="st0"
             d="M 248.00359,100.80728 C 210.27859,71.450279 158.3726,69.006279 118.3016,93.486279 c -3.087,1.877 -4.048,5.902 -2.182,8.978001 1.888,3.065 5.903,4.037 8.978,2.16 35.456,-21.666001 81.53799,-19.506001 114.87599,6.469 2.837,2.226 6.938,1.713 9.154,-1.135 2.214,-2.835 1.712,-6.937 -1.124,-9.151 z"
             id="path1020"
             style="fill:#f0f0f0;fill-opacity:1" />
          <path
             class="st0"
             d="m 498.544,447.722 -132.637,-129.2 c -7.255,-7.07 -18.84,-6.982 -26.008,0.174 l -21.033,21.033 c -7.156,7.156 -7.234,18.742 -0.153,25.986 l 129.19,132.636 c 14.346,17.324 35.542,18.35 51.917,1.964 16.396,-16.364 16.037,-38.247 -1.276,-52.593 z"
             id="path1022"
             style="fill:#f0f0f0;fill-opacity:1" />
        </g>
      </g>
    </g>
    <path
       class="st0"
       d="m 74.796263,45.687632 c 1.849413,-1.849412 4.858252,-1.849412 6.707665,0 1.849438,1.849414 1.849438,4.858563 0,6.707977 -1.849413,1.849412 -4.858252,1.849412 -6.707665,0 -1.849412,-1.849414 -1.849412,-4.858563 0,-6.707977 z m 0.658559,6.049419 c 1.488432,1.488145 3.902115,1.488145 5.390548,-2.87e-4 1.488432,-1.488432 1.488432,-3.902116 0,-5.390262 -1.488433,-1.488431 -3.901831,-1.488431 -5.390263,0 -1.488432,1.488433 -1.488717,3.90183 -2.85e-4,5.390549 z"
       id="path1018-1"
       style="fill:#f0f0f0;fill-opacity:1;stroke:#000000;stroke-width:0.00013288" />
  </g>
  <style
     type="text/css"
     id="style10">
	.st0{fill:#F39619;}
</style>
  <style
     type="text/css"
     id="style1158">
	.st0{fill:#F39619;}
</style>
</svg>
